<svg data-name="Layer 10" viewBox="0 0 100 100" xmlns="http://www.w3.org/2000/svg">
  <path d="M64.28 9H35.72A13 13 0 0023 22.21v51.58c0 6.73 5 12.28 11 12.93V91h9v-4h14v4h9v-4.28c6-.66 11-6.21 11-12.93V22.21A13 13 0 0064.28 9zm0 2A11 11 0 0175 22.21V41H28V14.38A11.22 11.22 0 0135.72 11zM26 17.05V41h-1V22.21c0-1.86 0-3.62 1-5.16zM25 43h1v35.95c-1-1.54-1-3.3-1-5.16zm16 46h-5v-2h5zm23 0h-5v-2h5zm.28-4H35.72A11.22 11.22 0 0128 81.62V43h47v30.79A11 11 0 0164.28 85zM73 20h-6v19h6zm-2 17h-2V22h2zm2 8h-6v25h6zm-2 23h-2V47h2z" fill="#fff"/>
</svg>