<svg width="24" height="24" 
  xmlns="http://www.w3.org/2000/svg">

  <g>
    <title>background</title>
    <rect fill="none" id="canvas_background" height="402" width="582" y="-1" x="-1"/>
  </g>
  <g>
    <title>Layer 1</title>
    <path fill="#fff" id="svg_1" d="m12.76,3.76a6,6 0 0 1 8.48,8.48l-8.53,8.54a1,1 0 0 1 -1.42,0l-8.53,-8.54a6,6 0 0 1 8.48,-8.48l0.76,0.75l0.76,-0.75zm7.07,7.07a4,4 0 1 0 -5.66,-5.66l-1.46,1.47a1,1 0 0 1 -1.42,0l-1.46,-1.47a4,4 0 1 0 -5.66,5.66l7.83,7.83l7.83,-7.83z" class="heroicon-ui"/>
  </g>
</svg>